<?xml version="1.0" encoding="UTF-8"?>
<svg width="328px" height="52px" viewBox="0 0 328 52" version="1.1" xmlns="http://www.w3.org/2000/svg" xmlns:xlink="http://www.w3.org/1999/xlink">
    <!-- Generator: Sketch 42 (36781) - http://www.bohemiancoding.com/sketch -->
    <title>NTUST Logo</title>
    <desc>Created with Sketch.</desc>
    <defs>
        <filter x="-50%" y="-50%" width="200%" height="200%" filterUnits="objectBoundingBox" id="filter-1">
            <feOffset dx="0" dy="2" in="SourceAlpha" result="shadowOffsetOuter1"></feOffset>
            <feGaussianBlur stdDeviation="2" in="shadowOffsetOuter1" result="shadowBlurOuter1"></feGaussianBlur>
            <feColorMatrix values="0 0 0 0 0   0 0 0 0 0   0 0 0 0 0  0 0 0 0.5 0" type="matrix" in="shadowBlurOuter1" result="shadowMatrixOuter1"></feColorMatrix>
            <feMerge>
                <feMergeNode in="shadowMatrixOuter1"></feMergeNode>
                <feMergeNode in="SourceGraphic"></feMergeNode>
            </feMerge>
        </filter>
    </defs>
    <g id="Page-1" stroke="none" stroke-width="1" fill="none" fill-rule="evenodd">
        <g id="International-Advanced-Technology-Program" transform="translate(-246.000000, -78.000000)" fill-rule="nonzero" fill="#FFFFFF">
            <g id="NTUST-Logo" filter="url(#filter-1)" transform="translate(250.000000, 80.000000)">
                <g id="Logo">
                    <path d="M8.06792453,6.22497027 C3.557946,10.4222322 0.920702107,16.2784981 0.754716981,22.4646849 C0.656603774,33.0197384 7.1245283,42.7224732 21.1320755,44.137931 L21.1320755,30.5084423 L8.06792453,22.6701546 L8.06792453,6.22497027 Z" id="Shape"></path>
                    <path d="M36.2264151,6.25541023 C40.6952775,10.4561127 43.28256,16.3053562 43.3962264,22.4646849 C43.4641509,33.0197384 37.1245283,42.7224732 23.1245283,44.137931 L23.1245283,30.5084423 L36.2264151,22.6625446 L36.2264151,6.89464923 L36.2264151,6.25541023 Z" id="Shape"></path>
                    <path d="M22.1207547,0 L10.2490566,7.13816885 L10.2490566,21.4068966 L22.1132075,28.5450654 L33.9622642,21.4068966 L33.9622642,7.13816885 L22.1207547,0 Z M22.1207547,21.9243757 C18.0303228,21.8369713 14.7753822,18.4394219 14.8301887,14.3143876 C14.781602,12.318297 15.5232329,10.3848467 16.8912267,8.94120962 C18.2592206,7.49757251 20.1409807,6.66257134 22.1207547,6.62068966 C24.0978067,6.6566756 25.9795451,7.48380498 27.3513246,8.919818 C28.7231042,10.355831 29.4723493,12.2828808 29.4339623,14.2763377 C29.4703221,16.2684897 28.7201757,18.1935791 27.3486133,19.6279376 C25.977051,21.062296 24.0964741,21.8883759 22.1207547,21.9243757 Z" id="Shape"></path>
                </g>
                <g id="Type" transform="translate(49.056604, 6.087990)">
                    <polygon id="Shape" points="17.4792453 23.4615933 17.4792453 4.07895363 25.7358491 4.07895363 25.7358491 0.821878716 0.249056604 0.821878716 0.249056604 4.07895363 8.64150943 4.07895363 8.64150943 23.4615933"></polygon>
                    <polygon id="Shape" points="186.543396 23.4615933 186.543396 4.07895363 194.8 4.07895363 194.8 0.821878716 169.313208 0.821878716 169.313208 4.07895363 177.70566 4.07895363 177.70566 23.4615933"></polygon>
                    <polygon id="Shape" points="217.554717 23.4768133 217.554717 20.2273484 205.584906 20.2273484 205.584906 13.7816885 215.064151 13.7816885 215.064151 10.5322235 205.584906 10.5322235 205.584906 4.0941736 217.554717 4.0941736 217.554717 0.821878716 196.74717 0.821878716 196.74717 23.4768133"></polygon>
                    <polygon id="Shape" points="41.9924528 0.821878716 32.709434 0.821878716 23.0113208 23.4387634 29.9320755 23.4387634 35.7283019 6.53697979 41.4792453 23.4387634 50.9811321 23.4387634"></polygon>
                    <polygon id="Shape" points="127.735849 23.4387634 118.74717 0.821878716 109.464151 0.821878716 99.7660377 23.4387634 106.679245 23.4387634 112.483019 6.53697979 118.233962 23.4387634"></polygon>
                    <rect id="Rectangle-path" x="53.6301887" y="0.821878716" width="8.83018868" height="22.6397146"></rect>
                    <polygon id="Shape" points="95.4490566 23.3854935 102.966038 0.821878716 96.8150943 0.821878716 92.6716981 15.1134364 88.7471698 0.821878716 81.7962264 0.821878716 77.6075472 15.1134364 73.9018868 0.821878716 65.6150943 0.821878716 72.0754717 23.3854935 80.3018868 23.3854935 83.7660377 11.544352 87.0566038 23.3854935"></polygon>
                    <polygon id="Shape" points="154.015094 23.4463734 154.015094 0.821878716 148.709434 0.821878716 148.709434 14.6035672 140.407547 0.821878716 130.777358 0.821878716 130.777358 23.4463734 136.143396 23.4463734 136.143396 8.88085612 144.679245 23.4463734"></polygon>
                    <polygon id="Shape" points="254.988679 13.0359096 261.388679 13.0359096 261.388679 23.4615933 270.218868 23.4615933 270.218868 0.821878716 261.388679 0.821878716 261.388679 9.78644471 254.988679 9.78644471 254.988679 0.821878716 246.166038 0.821878716 246.166038 23.4615933 254.988679 23.4615933"></polygon>
                    <path d="M243.298113,22.3048751 L243.298113,19.19239 C243.298113,19.19239 233.645283,21.3155767 231.049057,19.5196195 C231.049057,19.5196195 228.166038,18.2487515 228.166038,12.4042806 C228.166038,7.83828775 229.501887,5.85969084 230.966038,4.87800238 C232.74717,3.85065398 235.49434,3.27990488 243.298113,4.91605232 L243.298113,1.40023781 C243.298113,1.40023781 227.841509,-2.11557669 221.841509,5.08347206 C215.841509,12.2825208 220.543396,18.7814507 220.90566,19.2380499 C221.267925,19.6946492 226.264151,26.6349584 243.298113,22.3048751 Z" id="Shape"></path>
                    <polygon id="Shape" points="1.96226415 30.5160523 2.49811321 30.5160523 6.27169811 35.226635 6.27169811 35.226635 6.27169811 30.5160523 6.69433962 30.5160523 6.69433962 37.106302 6.4754717 37.106302 2.40754717 31.8706302 2.40754717 31.8706302 2.40754717 36.9541023 1.96226415 36.9541023"></polygon>
                    <path d="M10.4603774,30.3638526 L13.1622642,36.9541023 L12.1811321,36.9541023 L11.3207547,34.8080856 L8.84528302,34.8080856 L7.93962264,36.9617122 L7.45660377,36.9617122 L10.2188679,30.3714625 L10.4603774,30.3638526 Z M9.01132075,34.3895363 L11.1245283,34.3895363 L10.0830189,31.8401902 L9.01132075,34.3895363 Z" id="Shape"></path>
                    <polygon id="Shape" points="18.4603774 30.5160523 18.4603774 30.9346017 16.3849057 30.9346017 16.3849057 36.9617122 15.4264151 36.9617122 15.4264151 30.9269917 13.3433962 30.9269917 13.3433962 30.5160523"></polygon>
                    <polygon id="Shape" points="19.3433962 30.5160523 20.309434 30.5160523 20.309434 36.9541023 19.3433962 36.9541023"></polygon>
                    <path d="M24.6641509,37.106302 C24.0952384,37.1102258 23.5372098,36.9490846 23.0566038,36.6420927 C22.8228023,36.4936427 22.6096136,36.3145067 22.4226415,36.1093936 C22.2305102,35.9005881 22.0656509,35.667864 21.9320755,35.4168847 C21.6533454,34.8872622 21.5081948,34.2966001 21.509434,33.6970273 C21.5084473,33.1095869 21.6537717,32.531301 21.9320755,32.01522 C22.0653843,31.7687103 22.230326,31.5409873 22.4226415,31.337931 C22.6106888,31.1383117 22.8238163,30.9643439 23.0566038,30.8204518 C23.2918043,30.674559 23.5457447,30.5618952 23.8113208,30.4856124 C24.3693,30.3292471 24.9590019,30.3292471 25.5169811,30.4856124 C25.7825572,30.5618952 26.0364976,30.674559 26.2716981,30.8204518 C26.5042875,30.9646262 26.7173804,31.1385658 26.9056604,31.337931 C27.0975114,31.5413786 27.2624065,31.7690373 27.3962264,32.01522 C27.5288606,32.2556518 27.6327315,32.511104 27.7056604,32.7762188 C27.7801741,33.0644786 27.8182121,33.3610875 27.8188679,33.6589774 C27.8182826,33.9643906 27.7802585,34.2685598 27.7056604,34.564566 C27.6350617,34.8474516 27.5311801,35.1208138 27.3962264,35.3788347 C27.2621668,35.6295101 27.0973495,35.8621749 26.9056604,36.0713436 C26.7184438,36.2761977 26.505291,36.4553035 26.2716981,36.6040428 C25.7910921,36.9110347 25.2330635,37.0721759 24.6641509,37.0682521 L24.6641509,37.106302 Z M24.6641509,36.7866825 C24.9688921,36.793507 25.2694749,36.7144415 25.5320755,36.5583829 C25.7914081,36.3966738 26.0087436,36.1749204 26.1660377,35.9115339 C26.3499142,35.6112329 26.4825697,35.2819784 26.5584906,34.9374554 C26.6518163,34.5307744 26.6974122,34.1144421 26.6943396,33.6970273 C26.6973972,33.2871498 26.6517898,32.8783764 26.5584906,32.4794293 C26.482227,32.142165 26.3495089,31.8204754 26.1660377,31.5281807 C26.0070582,31.2722022 25.7896976,31.0582507 25.5320755,30.9041617 C25.2676866,30.7533052 24.967869,30.6770697 24.6641509,30.6834721 C24.3555473,30.6762019 24.0506443,30.7524052 23.7811321,30.9041617 C23.52351,31.0582507 23.3061493,31.2722022 23.1471698,31.5281807 C22.9663438,31.8209839 22.8361886,32.1426472 22.7622642,32.4794293 C22.6732245,32.8789735 22.6301729,33.2875379 22.6339623,33.6970273 C22.6300964,34.114064 22.6731386,34.530198 22.7622642,34.9374554 C22.835429,35.2816323 22.9655501,35.6109291 23.1471698,35.9115339 C23.3044639,36.1749204 23.5217994,36.3966738 23.7811321,36.5583829 C24.048889,36.71531 24.3545425,36.794335 24.6641509,36.7866825 Z" id="Shape"></path>
                    <polygon id="Shape" points="29.0188679 30.5160523 29.554717 30.5160523 33.3283019 35.226635 33.3283019 35.226635 33.3283019 30.5160523 33.7509434 30.5160523 33.7509434 37.106302 33.5320755 37.106302 29.4566038 31.8706302 29.4566038 31.8706302 29.4566038 36.9541023 29.0264151 36.9541023"></polygon>
                    <path d="M37.5169811,30.3638526 L40.2188679,36.9541023 L39.245283,36.9541023 L38.3698113,34.8004756 L35.909434,34.8004756 L35.0037736,36.9541023 L34.5207547,36.9541023 L37.2830189,30.3638526 L37.5169811,30.3638526 Z M36.0679245,34.3895363 L38.1811321,34.3895363 L37.1396226,31.8401902 L36.0679245,34.3895363 Z" id="Shape"></path>
                    <polygon id="Shape" points="40.9584906 30.5160523 41.9245283 30.5160523 41.9245283 36.5279429 44.8075472 36.5279429 44.8075472 36.9464923 40.9584906 36.9464923"></polygon>
                    <polygon id="Shape" points="52.6415094 30.5160523 52.6415094 30.9346017 50.5660377 30.9346017 50.5660377 36.9617122 49.6 36.9617122 49.6 30.9269917 47.5471698 30.9269917 47.5471698 30.5160523"></polygon>
                    <path d="M55.8490566,30.3638526 L58.5509434,36.9541023 L57.5698113,36.9541023 L56.6943396,34.8004756 L54.2339623,34.8004756 L53.3283019,36.9541023 L52.8301887,36.9541023 L55.5924528,30.3638526 L55.8490566,30.3638526 Z M54.4075472,34.3895363 L56.5207547,34.3895363 L55.4792453,31.8401902 L54.4075472,34.3895363 Z" id="Shape"></path>
                    <polygon id="Shape" points="59.2679245 30.5160523 60.2264151 30.5160523 60.2264151 36.9541023 59.2679245 36.9541023"></polygon>
                    <polygon id="Shape" points="61.9245283 30.5160523 63.6301887 35.4092747 65.1396226 30.9878716 66.6943396 35.4244946 68.3622642 30.5084423 68.8301887 30.5084423 66.6264151 37.0073722 66.3320755 37.0073722 64.9056604 32.9969084 63.5396226 37.0149822 63.2075472 37.0149822 60.9433962 30.5160523"></polygon>
                    <path d="M71.8566038,30.3638526 L74.5584906,36.9541023 L73.5773585,36.9541023 L72.7018868,34.8004756 L70.2415094,34.8004756 L69.3358491,36.9541023 L68.8528302,36.9541023 L71.6150943,30.3638526 L71.8566038,30.3638526 Z M70.4150943,34.3895363 L72.5283019,34.3895363 L71.4867925,31.8401902 L70.4150943,34.3895363 Z" id="Shape"></path>
                    <polygon id="Shape" points="75.2981132 30.5160523 75.8339623 30.5160523 79.6075472 35.226635 79.6075472 35.226635 79.6075472 30.5160523 80.0301887 30.5160523 80.0301887 37.106302 79.8113208 37.106302 75.7433962 31.8706302 75.7433962 31.8706302 75.7433962 36.9541023 75.3132075 36.9541023"></polygon>
                    <path d="M83.8641509,30.5160523 L84.8301887,30.5160523 L84.8301887,34.6939358 C84.828798,34.9525614 84.8695939,35.2096576 84.9509434,35.4549346 C85.0285438,35.6900926 85.1516794,35.9073735 85.3132075,36.0941736 C85.4701858,36.2765927 85.6629067,36.4242796 85.8792453,36.5279429 C86.3594827,36.7444451 86.9084418,36.7444451 87.3886792,36.5279429 C87.6030045,36.4245326 87.7933049,36.2767298 87.9471698,36.0941736 C88.1053579,35.9062739 88.2258294,35.6891709 88.3018868,35.4549346 C88.3829711,35.209592 88.4237599,34.9525403 88.4226415,34.6939358 L88.4226415,30.5160523 L88.845283,30.5160523 L88.845283,34.6939358 C88.8454271,35.0090268 88.7970522,35.3222301 88.7018868,35.6223543 C88.6099472,35.9055795 88.4580068,36.165249 88.2566038,36.3833532 C88.0460166,36.6117831 87.7884242,36.7910013 87.5018868,36.9084423 C87.137363,37.0439582 86.7506522,37.1085161 86.3622642,37.098692 C86.0035667,37.105538 85.64706,37.0408843 85.3132075,36.9084423 C84.7357616,36.6745334 84.2870847,36.1999178 84.0830189,35.6071344 C83.9758383,35.3043617 83.9221943,34.9849697 83.9245283,34.6634958 L83.8641509,30.5160523 Z" id="Shape"></path>
                    <polygon id="Shape" points="90.1584906 30.5160523 90.7018868 30.5160523 94.4754717 35.226635 94.4754717 35.226635 94.4754717 30.5160523 94.8981132 30.5160523 94.8981132 37.106302 94.6716981 37.106302 90.6037736 31.8706302 90.6037736 31.8706302 90.6037736 36.9541023 90.1735849 36.9541023"></polygon>
                    <polygon id="Shape" points="96.354717 30.5160523 97.3207547 30.5160523 97.3207547 36.9541023 96.354717 36.9541023"></polygon>
                    <polygon id="Shape" points="99.0792453 30.5160523 101.237736 35.6375743 103.25283 30.5160523 103.713208 30.5160523 101.132075 37.106302 100.883019 37.106302 98.090566 30.5160523"></polygon>
                    <polygon id="Shape" points="108.422642 30.5160523 108.422642 30.9346017 105.403774 30.9346017 105.403774 33.2175981 107.418868 33.2175981 107.418868 33.6361474 105.403774 33.6361474 105.403774 36.5279429 108.422642 36.5279429 108.422642 36.9464923 104.437736 36.9464923 104.437736 30.5160523"></polygon>
                    <path d="M109.49434,30.5160523 L111.479245,30.5160523 C111.78551,30.5100731 112.090894,30.5511298 112.384906,30.6378121 C112.622338,30.7094595 112.843063,30.8285044 113.033962,30.9878716 C113.202045,31.1341707 113.336047,31.3160598 113.426415,31.5205707 C113.514096,31.7326178 113.557761,31.9605303 113.554717,32.1902497 C113.559576,32.5716825 113.422207,32.9410487 113.169811,33.2252081 C113.041406,33.3698729 112.891123,33.493155 112.724528,33.5904875 C112.544955,33.6952502 112.351954,33.7746295 112.150943,33.8263971 L114.233962,36.9541023 L113.116981,36.9541023 L111.124528,33.910107 L110.45283,33.910107 L110.45283,36.9541023 L109.486792,36.9541023 L109.49434,30.5160523 Z M110.460377,33.6057075 L111.018868,33.6057075 C111.22169,33.6064811 111.423213,33.5730432 111.615094,33.5067776 C111.789645,33.4472797 111.951111,33.3542456 112.090566,33.2328181 C112.225934,33.1128959 112.334053,32.9649412 112.407547,32.7990488 C112.484515,32.6188949 112.523084,32.4244448 112.520755,32.2282996 C112.523682,32.0465994 112.492968,31.8659429 112.430189,31.6956005 C112.374598,31.5412507 112.290039,31.3991448 112.181132,31.2770511 C112.07301,31.1598628 111.941944,31.0665758 111.796226,31.0030916 C111.641346,30.9359469 111.474238,30.9022471 111.30566,30.9041617 L110.460377,30.9041617 L110.460377,33.6057075 Z" id="Shape"></path>
                    <path d="M116.528302,36.6953627 C116.671421,36.6966795 116.813914,36.6761539 116.950943,36.6344828 C117.085206,36.5919601 117.210564,36.5248903 117.320755,36.4366231 C117.430441,36.3503367 117.520514,36.2413495 117.584906,36.1170036 C117.652575,35.9827808 117.68628,35.8337688 117.683019,35.6832342 C117.68716,35.4988582 117.640107,35.3169856 117.54717,35.1581451 C117.452011,34.9980814 117.332286,34.8542428 117.192453,34.7319857 C117.035389,34.5948177 116.866119,34.4725406 116.686792,34.3667063 L116.113208,34.0242568 C115.916981,33.910107 115.720755,33.7883472 115.532075,33.6665874 C115.348695,33.5463491 115.179105,33.4059746 115.026415,33.248038 C114.882124,33.0981114 114.762391,32.9260069 114.671698,32.7381688 C114.578864,32.5328664 114.532461,32.3093195 114.535849,32.0837099 C114.532585,31.8497482 114.573567,31.6173025 114.656604,31.3988109 C114.736257,31.1917033 114.859906,31.0046868 115.018868,30.8508918 C115.188443,30.6900676 115.388746,30.5657785 115.607547,30.4856124 C115.86433,30.3943383 116.135335,30.3505135 116.407547,30.3562426 C116.865995,30.3296085 117.31942,30.4640787 117.690566,30.736742 C118.026279,31.0266701 118.263759,31.4151223 118.369811,31.8478002 L117.871698,32.0989298 C117.818649,31.9112662 117.74525,31.7300694 117.65283,31.5586207 C117.56733,31.402648 117.457788,31.2613691 117.328302,31.1400713 C117.203753,31.0216534 117.057677,30.9286273 116.898113,30.8661118 C116.72407,30.8023187 116.539871,30.7713633 116.354717,30.7747919 C116.192314,30.7709634 116.030752,30.7994074 115.879245,30.8585018 C115.752562,30.9084671 115.637085,30.9835055 115.539623,31.0791914 C115.450756,31.16764 115.381329,31.2739433 115.335849,31.391201 C115.291519,31.5025249 115.268473,31.6212991 115.267925,31.7412604 C115.265971,31.9062383 115.313307,32.06799 115.403774,32.2054697 C115.506792,32.3574469 115.631393,32.4933407 115.773585,32.608799 C115.935042,32.7437395 116.106625,32.8658647 116.286792,32.9740785 L116.883019,33.3241379 L117.479245,33.6970273 C117.664657,33.8205484 117.836672,33.9633869 117.992453,34.1231867 C118.140605,34.2704347 118.265342,34.4398468 118.362264,34.6254459 C118.458794,34.8162003 118.507999,35.0277161 118.50566,35.2418549 C118.507835,35.4887847 118.464324,35.7339582 118.377358,35.9648038 C118.292885,36.1860479 118.161524,36.3860277 117.992453,36.5507729 C117.808155,36.7261222 117.589689,36.860885 117.350943,36.9464923 C116.823839,37.1231121 116.25677,37.1389951 115.720755,36.9921522 C115.513916,36.9275628 115.319819,36.8271313 115.14717,36.6953627 C114.978898,36.5624216 114.835734,36.4000221 114.724528,36.2159334 C114.599077,36.0167698 114.500117,35.8018514 114.430189,35.5766944 L114.950943,35.3331748 C115.005951,35.5309898 115.087187,35.7204129 115.192453,35.8963139 C115.287295,36.0566045 115.40706,36.2004909 115.54717,36.3224732 C115.682116,36.4345078 115.835337,36.5220556 116,36.5812128 C116.167859,36.6509913 116.346826,36.6896606 116.528302,36.6953627 L116.528302,36.6953627 Z" id="Shape"></path>
                    <polygon id="Shape" points="119.6 30.5160523 120.566038 30.5160523 120.566038 36.9541023 119.6 36.9541023"></polygon>
                    <polygon id="Shape" points="126.566038 30.5160523 126.566038 30.9346017 124.528302 30.9346017 124.528302 36.9617122 123.562264 36.9617122 123.562264 30.9269917 121.486792 30.9269917 121.486792 30.5160523"></polygon>
                    <polygon id="Shape" points="127.728302 30.5160523 129.713208 33.7807372 131.690566 30.5160523 132.211321 30.5160523 129.984906 34.1688466 129.984906 36.9541023 129.056604 36.9541023 129.056604 34.2449465 126.792453 30.4856124"></polygon>
                    <path d="M138.34717,37.106302 C137.778315,37.1097977 137.220404,36.9486904 136.739623,36.6420927 C136.505926,36.4934973 136.292755,36.3143766 136.10566,36.1093936 C135.913783,35.900379 135.748948,35.6676892 135.615094,35.4168847 C135.480466,35.1587149 135.3766,34.8853927 135.30566,34.6026159 C135.229967,34.3068199 135.191925,34.0025111 135.192453,33.6970273 C135.192026,33.399067 135.230082,33.1023191 135.30566,32.8142687 C135.378856,32.5492463 135.482715,32.2938251 135.615094,32.0532699 C135.748624,31.8069017 135.913546,31.5792066 136.10566,31.375981 C136.293766,31.1764256 136.506885,31.0024649 136.739623,30.8585018 C136.974823,30.712609 137.228764,30.5999452 137.49434,30.5236623 C138.052267,30.3669115 138.642073,30.3669115 139.2,30.5236623 C139.465806,30.5993002 139.719833,30.7120021 139.954717,30.8585018 C140.187655,31.0021783 140.40081,31.1761679 140.588679,31.375981 C140.781062,31.5789802 140.946011,31.8067126 141.079245,32.0532699 C141.212204,32.2935442 141.316091,32.5490365 141.388679,32.8142687 C141.463514,33.1024656 141.501557,33.399116 141.501887,33.6970273 C141.501613,34.0024605 141.463584,34.3066683 141.388679,34.6026159 C141.318429,34.8856125 141.214532,35.1590159 141.079245,35.4168847 C140.94574,35.6679082 140.780875,35.900641 140.588679,36.1093936 C140.401894,36.3147042 140.188678,36.4938635 139.954717,36.6420927 C139.473936,36.9486904 138.916024,37.1097977 138.34717,37.106302 L138.34717,37.106302 Z M138.34717,36.7866825 C138.651958,36.7939135 138.95265,36.7148193 139.215094,36.5583829 C139.47461,36.3969056 139.691995,36.1751022 139.849057,35.9115339 C140.033189,35.611364 140.165863,35.2820645 140.241509,34.9374554 C140.334835,34.5307744 140.380431,34.1144421 140.377358,33.6970273 C140.380344,33.2871536 140.334737,32.8783889 140.241509,32.4794293 C140.165246,32.142165 140.032528,31.8204754 139.849057,31.5281807 C139.690307,31.2720155 139.472896,31.0580146 139.215094,30.9041617 C138.950846,30.7529519 138.65093,30.6766915 138.34717,30.6834721 C138.038566,30.6762019 137.733663,30.7524052 137.464151,30.9041617 C137.206168,31.0577763 136.988707,31.2718273 136.830189,31.5281807 C136.649363,31.8209839 136.519207,32.1426472 136.445283,32.4794293 C136.356243,32.8789735 136.313192,33.2875379 136.316981,33.6970273 C136.313115,34.114064 136.356157,34.530198 136.445283,34.9374554 C136.518448,35.2816323 136.648569,35.6109291 136.830189,35.9115339 C136.987017,36.1752854 137.204451,36.3971394 137.464151,36.5583829 C137.732058,36.7149402 138.037606,36.793938 138.34717,36.7866825 L138.34717,36.7866825 Z" id="Shape"></path>
                    <polygon id="Shape" points="146.460377 30.5160523 146.460377 30.9346017 143.667925 30.9346017 143.667925 33.2175981 145.660377 33.2175981 145.660377 33.6361474 143.637736 33.6361474 143.637736 36.9388823 142.671698 36.9388823 142.671698 30.5160523"></polygon>
                    <path d="M151.260377,36.6953627 C151.403489,36.6965632 151.545965,36.6760401 151.683019,36.6344828 C151.816959,36.5911843 151.942183,36.5241856 152.05283,36.4366231 C152.162681,36.3505085 152.252787,36.241482 152.316981,36.1170036 C152.384949,35.98289 152.418671,35.833801 152.415094,35.6832342 C152.418058,35.4989989 152.371086,35.317443 152.279245,35.1581451 C152.18388,34.9982296 152.064181,34.8544217 151.924528,34.7319857 C151.767256,34.5950847 151.598011,34.4728256 151.418868,34.3667063 L150.837736,34.0242568 C150.641509,33.910107 150.445283,33.7883472 150.256604,33.6665874 C150.073822,33.5455259 149.904317,33.4052217 149.750943,33.248038 C149.607327,33.09755 149.487672,32.9255584 149.396226,32.7381688 C149.303392,32.5328664 149.256989,32.3093195 149.260377,32.0837099 C149.257839,31.8498082 149.298798,31.6174986 149.381132,31.3988109 C149.460786,31.1917033 149.584434,31.0046868 149.743396,30.8508918 C149.912579,30.6895507 150.112994,30.5651919 150.332075,30.4856124 C150.588859,30.3943383 150.859864,30.3505135 151.132075,30.3562426 C151.590524,30.3296085 152.043948,30.4640787 152.415094,30.736742 C152.750037,31.0273333 152.987354,31.415518 153.09434,31.8478002 L152.603774,32.0989298 C152.550609,31.9113065 152.477215,31.7301221 152.384906,31.5586207 C152.300889,31.4016645 152.191167,31.2601552 152.060377,31.1400713 C151.935946,31.0215007 151.789839,30.9284545 151.630189,30.8661118 C151.456146,30.8023187 151.271947,30.7713633 151.086792,30.7747919 C150.92439,30.7709634 150.762828,30.7994074 150.611321,30.8585018 C150.484912,30.9090061 150.369534,30.9839798 150.271698,31.0791914 C150.183176,31.1679241 150.1138,31.2741498 150.067925,31.391201 C150.023595,31.5025249 150.000548,31.6212991 150,31.7412604 C149.999798,31.907111 150.049828,32.0690692 150.143396,32.2054697 C150.24411,32.3569188 150.366143,32.4927853 150.50566,32.608799 C150.669588,32.7439921 150.843698,32.8661204 151.026415,32.9740785 L151.622642,33.3241379 L152.218868,33.6970273 C152.40691,33.820112 152.581472,33.9629645 152.739623,34.1231867 C152.885466,34.2706612 153.00768,34.440105 153.101887,34.6254459 C153.198416,34.8162003 153.247622,35.0277161 153.245283,35.2418549 C153.247994,35.48883 153.204465,35.7341033 153.116981,35.9648038 C153.030522,36.1868673 152.896517,36.3869501 152.724528,36.5507729 C152.540779,36.7268438 152.322152,36.8617056 152.083019,36.9464923 C151.555914,37.1231121 150.988846,37.1389951 150.45283,36.9921522 C150.245755,36.9281497 150.05156,36.8276676 149.879245,36.6953627 C149.710745,36.5626664 149.567542,36.4002217 149.456604,36.2159334 C149.332876,36.0158242 149.234021,35.8011336 149.162264,35.5766944 L149.683019,35.3331748 C149.739578,35.5304314 149.820729,35.7196553 149.924528,35.8963139 C150.020096,36.0560836 150.13977,36.1998615 150.279245,36.3224732 C150.414192,36.4345078 150.567413,36.5220556 150.732075,36.5812128 C150.899934,36.6509913 151.078901,36.6896606 151.260377,36.6953627 Z" id="Shape"></path>
                    <path d="M155.207547,33.7579073 C155.200596,34.1710897 155.261808,34.5825634 155.388679,34.9755054 C155.494889,35.3093901 155.664021,35.6194622 155.886792,35.8887039 C156.093722,36.1325548 156.351405,36.3274259 156.641509,36.459453 C156.938252,36.5928966 157.260003,36.6603779 157.584906,36.6573127 C157.785691,36.6577777 157.98411,36.6136063 158.166038,36.5279429 C158.354849,36.4392699 158.53019,36.3239651 158.686792,36.1854935 C158.848348,36.0460941 158.992772,35.8876939 159.116981,35.7136742 C159.239339,35.5440774 159.345475,35.3631648 159.433962,35.173365 L159.841509,35.4625446 C159.720382,35.6816967 159.581547,35.8904096 159.426415,36.0865636 C159.264296,36.2859126 159.076468,36.4625073 158.867925,36.6116528 C158.635871,36.7707601 158.381471,36.8938884 158.113208,36.9769322 C157.826013,37.0723828 157.524998,37.1186826 157.222642,37.113912 C156.92161,37.115367 156.621854,37.0743838 156.332075,36.9921522 C156.066302,36.9129423 155.812414,36.7977419 155.577358,36.6497027 C155.345483,36.5047145 155.13467,36.3280015 154.950943,36.1246136 C154.765707,35.9181113 154.608369,35.6878152 154.483019,35.4397146 C154.355727,35.1985284 154.256939,34.9431162 154.188679,34.6787158 C154.118475,34.3923843 154.082995,34.0985194 154.083019,33.8035672 C154.083267,33.5061226 154.118739,33.209772 154.188679,32.9208086 C154.257169,32.6407843 154.358513,32.3699884 154.490566,32.1141498 C154.62006,31.8643842 154.779769,31.6317732 154.966038,31.4216409 C155.153992,31.2124148 155.369898,31.0305692 155.607547,30.8813317 C155.842238,30.7307235 156.096132,30.6129603 156.362264,30.5312723 C156.657027,30.4482212 156.961879,30.407236 157.267925,30.4095125 C157.555448,30.4051688 157.841513,30.4515261 158.113208,30.5464923 C158.362992,30.6344798 158.599267,30.7574432 158.815094,30.9117717 C159.025668,31.0641034 159.215912,31.243142 159.381132,31.4444709 C159.540824,31.638869 159.682309,31.8477682 159.803774,32.0684899 L159.388679,32.3881094 C159.218638,31.9380507 158.950382,31.5323188 158.603774,31.2009512 C158.317772,30.9613647 157.956714,30.8319199 157.584906,30.8356718 C157.264175,30.8337676 156.947055,30.9039587 156.656604,31.0411415 C156.367377,31.1780714 156.110168,31.3751771 155.901887,31.6195006 C155.678459,31.8923674 155.507021,32.2045564 155.396226,32.5403092 C155.266794,32.9328141 155.20303,33.3442985 155.207547,33.7579073 Z" id="Shape"></path>
                    <polygon id="Shape" points="161.026415 30.5160523 161.992453 30.5160523 161.992453 36.9541023 161.026415 36.9541023"></polygon>
                    <polygon id="Shape" points="167.411321 30.5160523 167.411321 30.9346017 164.392453 30.9346017 164.392453 33.2175981 166.415094 33.2175981 166.415094 33.6361474 164.392453 33.6361474 164.392453 36.5279429 167.411321 36.5279429 167.411321 36.9464923 163.426415 36.9464923 163.426415 30.5160523"></polygon>
                    <polygon id="Shape" points="168.483019 30.5160523 169.056604 30.5160523 172.830189 35.226635 172.830189 35.226635 172.830189 30.5160523 173.25283 30.5160523 173.25283 37.106302 173.033962 37.106302 168.966038 31.8706302 168.966038 31.8706302 168.966038 36.9541023 168.535849 36.9541023"></polygon>
                    <path d="M175.562264,33.7579073 C175.554605,34.1711365 175.615834,34.5827281 175.743396,34.9755054 C175.848899,35.3096966 176.018102,35.6199001 176.241509,35.8887039 C176.447747,36.1332975 176.705608,36.3283035 176.996226,36.459453 C177.29065,36.5918314 177.609714,36.6592888 177.932075,36.6573127 C178.132835,36.6575294 178.331201,36.6133698 178.513208,36.5279429 C178.701583,36.4384812 178.87682,36.3232453 179.033962,36.1854935 C179.194564,36.0451006 179.33888,35.8868188 179.464151,35.7136742 C179.584205,35.5439705 179.687825,35.3630375 179.773585,35.173365 L180.181132,35.4625446 C180.059577,35.6814324 179.920765,35.8901111 179.766038,36.0865636 C179.603465,36.2854829 179.415698,36.462021 179.207547,36.6116528 C178.976079,36.7717843 178.721519,36.8949902 178.45283,36.9769322 C178.165736,37.0728057 177.86465,37.1191164 177.562264,37.113912 C177.261232,37.115367 176.961476,37.0743838 176.671698,36.9921522 C176.405989,36.9127668 176.152125,36.7975769 175.916981,36.6497027 C175.685163,36.504635 175.47436,36.3279306 175.290566,36.1246136 C175.106719,35.9170068 174.94951,35.6868998 174.822642,35.4397146 C174.695287,35.1985577 174.596495,34.9431379 174.528302,34.6787158 C174.319357,33.8150972 174.426553,32.9044533 174.830189,32.1141498 C174.960993,31.863331 175.123339,31.630574 175.313208,31.4216409 C175.501162,31.2124148 175.717068,31.0305692 175.954717,30.8813317 C176.189541,30.73097 176.443401,30.6132227 176.709434,30.5312723 C177.004156,30.4480236 177.309036,30.4070346 177.615094,30.4095125 C177.9001,30.405899 178.183562,30.4522483 178.45283,30.5464923 C178.702615,30.6344798 178.93889,30.7574432 179.154717,30.9117717 C179.365615,31.0637043 179.555907,31.2427885 179.720755,31.4444709 C179.879747,31.6393994 180.021187,31.8482324 180.143396,32.0684899 L179.728302,32.3881094 C179.561751,31.9399446 179.298855,31.5345225 178.958491,31.2009512 C178.672489,30.9613647 178.311431,30.8319199 177.939623,30.8356718 C177.618892,30.8337676 177.301772,30.9039587 177.011321,31.0411415 C176.721368,31.1768588 176.463921,31.3741468 176.256604,31.6195006 C176.031847,31.8914522 175.860264,32.203906 175.750943,32.5403092 C175.62082,32.9326448 175.557038,33.3442472 175.562264,33.7579073 Z" id="Shape"></path>
                    <polygon id="Shape" points="185.358491 30.5160523 185.358491 30.9346017 182.339623 30.9346017 182.339623 33.2175981 184.362264 33.2175981 184.362264 33.6361474 182.339623 33.6361474 182.339623 36.5279429 185.358491 36.5279429 185.358491 36.9464923 181.373585 36.9464923 181.373585 30.5160523"></polygon>
                    <path d="M191.2,30.3638526 L193.901887,36.9541023 L192.920755,36.9541023 L192.045283,34.8004756 L189.584906,34.8004756 L188.679245,36.9541023 L188.196226,36.9541023 L190.943396,30.3638526 L191.2,30.3638526 Z M189.750943,34.3895363 L191.864151,34.3895363 L190.822642,31.8401902 L189.750943,34.3895363 Z" id="Shape"></path>
                    <polygon id="Shape" points="194.641509 30.5160523 195.177358 30.5160523 198.950943 35.226635 198.988679 35.226635 198.988679 30.5160523 199.411321 30.5160523 199.411321 37.106302 199.192453 37.106302 195.116981 31.8706302 195.116981 31.8706302 195.116981 36.9541023 194.686792 36.9541023"></polygon>
                    <path d="M200.837736,30.5160523 L202.74717,30.5160523 C203.256287,30.5059127 203.76432,30.5673841 204.256604,30.698692 C204.651361,30.8071558 205.014001,31.0108797 205.313208,31.2922711 C205.638442,31.5880011 205.895971,31.9515419 206.067925,32.3576694 C206.233764,32.778809 206.315825,33.2287295 206.309434,33.6818074 C206.313047,34.1177482 206.238912,34.5507938 206.090566,34.9602854 C205.803094,35.7574926 205.190264,36.3920485 204.407547,36.7029727 C203.955901,36.8818718 203.473859,36.9697753 202.988679,36.9617122 L200.845283,36.9617122 L200.837736,30.5160523 Z M201.803774,36.482283 L202.822642,36.482283 C203.136046,36.4830884 203.446476,36.421003 203.735849,36.2996433 C204.023212,36.1802033 204.280908,35.9983153 204.490566,35.7669441 C204.714491,35.5115489 204.886316,35.2141694 204.996226,34.8917955 C205.123517,34.5041941 205.184761,34.0976486 205.177358,33.6894174 C205.181083,33.3193763 205.122385,32.9513901 205.003774,32.6011891 C204.898182,32.2886065 204.734226,31.9992943 204.520755,31.7488704 C204.098323,31.2575922 203.48253,30.9791533 202.837736,30.9878716 L201.811321,30.9878716 L201.803774,36.482283 Z" id="Shape"></path>
                    <polygon id="Shape" points="214.528302 30.5160523 214.528302 30.9346017 212.45283 30.9346017 212.45283 36.9617122 211.486792 36.9617122 211.486792 30.9269917 209.411321 30.9269917 209.411321 30.5160523"></polygon>
                    <polygon id="Shape" points="219.396226 30.5160523 219.396226 30.9346017 216.377358 30.9346017 216.377358 33.2175981 218.4 33.2175981 218.4 33.6361474 216.377358 33.6361474 216.377358 36.5279429 219.396226 36.5279429 219.396226 36.9464923 215.411321 36.9464923 215.411321 30.5160523"></polygon>
                    <path d="M221.343396,33.7579073 C221.337818,34.170997 221.398996,34.5822457 221.524528,34.9755054 C221.631257,35.3091643 221.800337,35.6191408 222.022642,35.8887039 C222.22974,36.1323723 222.48738,36.3272106 222.777358,36.459453 C223.074101,36.5928966 223.395852,36.6603779 223.720755,36.6573127 C223.921567,36.6580289 224.12004,36.6138455 224.301887,36.5279429 C224.490263,36.4384812 224.665499,36.3232453 224.822642,36.1854935 C224.983198,36.0450538 225.127509,35.8867774 225.25283,35.7136742 C225.372317,35.5436032 225.475905,35.3627257 225.562264,35.173365 L225.962264,35.4625446 C225.842526,35.6825518 225.703614,35.8913814 225.54717,36.0865636 C225.385942,36.2867533 225.197992,36.4634619 224.988679,36.6116528 C224.52,36.9483382 223.956497,37.1243981 223.381132,37.113912 C223.0801,37.115367 222.780344,37.0743838 222.490566,36.9921522 C222.224595,36.9134794 221.970637,36.798247 221.735849,36.6497027 C221.504031,36.504635 221.293228,36.3279306 221.109434,36.1246136 C220.924405,35.9179463 220.767086,35.687679 220.641509,35.4397146 C220.51543,35.1979688 220.416698,34.9427002 220.34717,34.6787158 C220.20735,34.1012268 220.20735,33.4982975 220.34717,32.9208086 C220.414742,32.6404976 220.516127,32.3695924 220.649057,32.1141498 C220.777154,31.8635362 220.936981,31.630754 221.124528,31.4216409 C221.312884,31.2128365 221.528729,31.0310424 221.766038,30.8813317 C222.001036,30.7312932 222.254851,30.6135664 222.520755,30.5312723 C222.815436,30.4478241 223.120344,30.4068314 223.426415,30.4095125 C223.713905,30.4056334 223.999891,30.4519779 224.271698,30.5464923 C224.521097,30.6353831 224.757252,30.758284 224.973585,30.9117717 C225.184159,31.0641034 225.374402,31.243142 225.539623,31.4444709 C225.700298,31.6381202 225.841849,31.8471169 225.962264,32.0684899 L225.54717,32.3881094 C225.369627,31.9363655 225.093641,31.5306441 224.739623,31.2009512 C224.453293,30.9619455 224.092453,30.8325788 223.720755,30.8356718 C223.400024,30.8337676 223.082904,30.9039587 222.792453,31.0411415 C222.502126,31.1762323 222.244555,31.3736159 222.037736,31.6195006 C221.813429,31.8917627 221.641896,32.204126 221.532075,32.5403092 C221.403051,32.9329138 221.339298,33.344329 221.343396,33.7579073 L221.343396,33.7579073 Z" id="Shape"></path>
                    <polygon id="Shape" points="228.120755 33.8644471 228.120755 36.9541023 227.169811 36.9541023 227.169811 30.5160523 228.135849 30.5160523 228.135849 33.4839477 231.018868 33.4839477 231.018868 30.5160523 231.984906 30.5160523 231.984906 36.9541023 231.018868 36.9541023 231.018868 33.8644471"></polygon>
                    <polygon id="Shape" points="233.403774 30.5160523 233.962264 30.5160523 237.735849 35.226635 237.735849 35.226635 237.735849 30.5160523 238.158491 30.5160523 238.158491 37.106302 237.932075 37.106302 233.864151 31.8706302 233.864151 31.8706302 233.864151 36.9541023 233.433962 36.9541023"></polygon>
                    <path d="M242.520755,37.106302 C241.9519,37.1097977 241.393989,36.9486904 240.913208,36.6420927 C240.677215,36.4935399 240.461543,36.3144493 240.271698,36.1093936 C240.079631,35.9005354 239.914778,35.66782 239.781132,35.4168847 C239.500631,34.8879472 239.355368,34.2968284 239.358491,33.6970273 C239.355541,33.1093434 239.500988,32.5305726 239.781132,32.01522 C240.045727,31.5245279 240.433509,31.1125246 240.90566,30.8204518 C241.140861,30.674559 241.394801,30.5618952 241.660377,30.4856124 C242.490903,30.2460446 243.382934,30.3674436 244.120755,30.8204518 C244.352912,30.9652416 244.56593,31.1391205 244.754717,31.337931 C244.947443,31.5406407 245.112426,31.7684214 245.245283,32.01522 C245.523285,32.5314201 245.668589,33.1096271 245.667925,33.6970273 C245.668782,34.0025316 245.630736,34.3068827 245.554717,34.6026159 C245.484467,34.8856125 245.380569,35.1590159 245.245283,35.4168847 C245.112136,35.6681321 244.947239,35.9009093 244.754717,36.1093936 C244.566968,36.3136824 244.353892,36.4927232 244.120755,36.6420927 C243.885967,36.790637 243.632008,36.9058694 243.366038,36.9845422 C243.091421,37.0653054 242.806814,37.106302 242.520755,37.106302 Z M242.520755,36.7866825 C242.825449,36.7931046 243.125925,36.7140673 243.388679,36.5583829 C243.647294,36.3957663 243.864439,36.1742071 244.022642,35.9115339 C244.206264,35.6111032 244.338902,35.281893 244.415094,34.9374554 C244.50842,34.5307744 244.554016,34.1144421 244.550943,33.6970273 C244.554001,33.2871498 244.508394,32.8783764 244.415094,32.4794293 C244.338831,32.142165 244.206113,31.8204754 244.022642,31.5281807 C243.862763,31.2729345 243.645597,31.0591748 243.388679,30.9041617 C243.124151,30.7536552 242.82443,30.6774443 242.520755,30.6834721 C242.212151,30.6762019 241.907248,30.7524052 241.637736,30.9041617 C241.380644,31.0589468 241.16343,31.2727536 241.003774,31.5281807 C240.822948,31.8209839 240.692792,32.1426472 240.618868,32.4794293 C240.52888,32.8788153 240.485817,33.2874917 240.490566,33.6970273 C240.485908,34.1141014 240.528959,34.5303262 240.618868,34.9374554 C240.692714,35.2814231 240.822791,35.6106086 241.003774,35.9115339 C241.161752,36.1743834 241.378944,36.3959903 241.637736,36.5583829 C241.905493,36.71531 242.211146,36.794335 242.520755,36.7866825 L242.520755,36.7866825 Z" id="Shape"></path>
                    <polygon id="Shape" points="246.875472 30.5160523 247.841509 30.5160523 247.841509 36.5279429 250.724528 36.5279429 250.724528 36.9464923 246.875472 36.9464923"></polygon>
                    <path d="M254.437736,37.106302 C253.868823,37.1102258 253.310795,36.9490846 252.830189,36.6420927 C252.355473,36.3399518 251.967713,35.9174756 251.70566,35.4168847 C251.571032,35.1587149 251.467166,34.8853927 251.396226,34.6026159 C251.319877,34.3069467 251.281825,34.0025523 251.283019,33.6970273 C251.281894,33.3990226 251.319962,33.102183 251.396226,32.8142687 C251.469422,32.5492463 251.573281,32.2938251 251.70566,32.0532699 C251.83882,31.8066648 252.003775,31.5789229 252.196226,31.375981 C252.387731,31.1770843 252.603255,31.0032304 252.837736,30.8585018 C253.072936,30.712609 253.326877,30.5999452 253.592453,30.5236623 C254.15038,30.3669115 254.740186,30.3669115 255.298113,30.5236623 C255.563689,30.5999452 255.81763,30.712609 256.05283,30.8585018 C256.526422,31.1511985 256.916513,31.5628914 257.184906,32.0532699 C257.317285,32.2938251 257.421144,32.5492463 257.49434,32.8142687 C257.569501,33.1024013 257.60755,33.3990943 257.607547,33.6970273 C257.60767,34.0024856 257.569634,34.3067432 257.49434,34.6026159 C257.423468,34.8854143 257.319598,35.1587444 257.184906,35.4168847 C257.050846,35.66756 256.886029,35.9002248 256.69434,36.1093936 C256.506765,36.3138682 256.293665,36.4929302 256.060377,36.6420927 C255.825589,36.790637 255.571631,36.9058694 255.30566,36.9845422 C255.023765,37.0674763 254.731377,37.1084949 254.437736,37.106302 Z M254.437736,36.7866825 C254.742477,36.793507 255.04306,36.7144415 255.30566,36.5583829 C255.564993,36.3966738 255.782329,36.1749204 255.939623,35.9115339 C256.124014,35.6114964 256.256706,35.2821514 256.332075,34.9374554 C256.424924,34.5306926 256.470513,34.114417 256.467925,33.6970273 C256.470623,33.2871688 256.42502,32.8784384 256.332075,32.4794293 C256.256816,32.1418425 256.124028,31.8199849 255.939623,31.5281807 C255.780643,31.2722022 255.563282,31.0582507 255.30566,30.9041617 C255.041412,30.7529519 254.741496,30.6766915 254.437736,30.6834721 C254.129091,30.6758283 253.824092,30.7520557 253.554717,30.9041617 C253.296915,31.0580146 253.079504,31.2720155 252.920755,31.5281807 C252.738586,31.8202908 252.608333,32.1421956 252.535849,32.4794293 C252.445862,32.8788153 252.402798,33.2874917 252.407547,33.6970273 C252.402956,34.1140983 252.446007,34.5303153 252.535849,34.9374554 C252.608315,35.2818461 252.738482,35.6112584 252.920755,35.9115339 C253.090098,36.167573 253.317845,36.3789488 253.584906,36.5279429 C253.840828,36.6901878 254.135515,36.779593 254.437736,36.7866825 Z" id="Shape"></path>
                    <path d="M262.060377,30.8280618 C261.409442,30.8288025 260.79261,31.1216564 260.377358,31.6271106 C260.153043,31.9009899 259.983848,32.2163481 259.879245,32.5555291 C259.756887,32.9519691 259.698284,33.3656094 259.70566,33.7807372 C259.698252,34.1970388 259.76208,34.6115118 259.89434,35.0059453 C260.010455,35.3464002 260.189742,35.6614739 260.422642,35.9343639 C260.861353,36.451734 261.506141,36.7447221 262.181132,36.7334126 C262.412499,36.7366822 262.642568,36.6980183 262.860377,36.6192628 C263.05972,36.5443762 263.243859,36.4334884 263.403774,36.2920333 L263.403774,34.0090369 L262.324528,34.0090369 L262.324528,33.6285375 L264.369811,33.6285375 L264.369811,36.459453 C264.20667,36.5583139 264.037816,36.6472556 263.864151,36.7258026 C263.685856,36.8060278 263.501655,36.8721797 263.313208,36.9236623 C263.100522,36.9820787 262.883441,37.0228019 262.664151,37.0454221 C262.395923,37.0738236 262.126289,37.0865282 261.856604,37.0834721 C261.55068,37.0838345 261.246086,37.0428839 260.950943,36.9617122 C260.672303,36.8852212 260.405589,36.7699637 260.158491,36.6192628 C259.916476,36.4758651 259.695479,36.2991329 259.501887,36.0941736 C259.307183,35.8941638 259.139681,35.6689693 259.003774,35.4244946 C258.72255,34.9147326 258.574514,34.34123 258.573585,33.7579073 C258.571367,33.4603173 258.606874,33.1636615 258.679245,32.8751486 C258.747389,32.5950158 258.848748,32.324179 258.981132,32.0684899 C259.111936,31.8176711 259.274282,31.5849141 259.464151,31.375981 C259.848368,30.9480561 260.341796,30.6347931 260.890566,30.4703924 C261.182169,30.3837583 261.484683,30.3401823 261.788679,30.3410226 C262.076203,30.3366789 262.362267,30.3830362 262.633962,30.4780024 C262.883867,30.5657091 263.12018,30.6886923 263.335849,30.8432818 C263.546423,30.9956135 263.736666,31.1746521 263.901887,31.375981 C264.061407,31.5705092 264.202881,31.779392 264.324528,32 L263.909434,32.3196195 C263.716843,31.890193 263.433503,31.5083957 263.079245,31.2009512 C262.794301,30.958622 262.433135,30.8264409 262.060377,30.8280618 Z" id="Shape"></path>
                    <polygon id="Shape" points="265.962264 30.5160523 267.924528 33.7807372 269.901887 30.5160523 270.422642 30.5160523 268.203774 34.1688466 268.203774 36.9541023 267.237736 36.9541023 267.237736 34.2449465 264.973585 30.4856124"></polygon>
                </g>
            </g>
        </g>
    </g>
</svg>